<svg xmlns="http://www.w3.org/2000/svg" viewBox="0 0 500 500"><g id="freepik--background-complete--inject-23"><rect y="382.4" width="500" height="0.25" style="fill:#ebebeb"></rect><rect x="104.54" y="389.21" width="33.12" height="0.25" style="fill:#ebebeb"></rect><rect x="171.14" y="398.37" width="40.75" height="0.25" style="fill:#ebebeb"></rect><rect x="52.46" y="395.24" width="51.08" height="0.25" style="fill:#ebebeb"></rect><rect x="356.76" y="390.89" width="93.14" height="0.25" style="fill:#ebebeb"></rect><rect x="341.53" y="390.89" width="6.33" height="0.25" style="fill:#ebebeb"></rect><rect x="277.21" y="395.11" width="42.23" height="0.25" style="fill:#ebebeb"></rect><path d="M237,337.8H43.91a5.71,5.71,0,0,1-5.7-5.71V60.66A5.71,5.71,0,0,1,43.91,55H237a5.71,5.71,0,0,1,5.71,5.71V332.09A5.71,5.71,0,0,1,237,337.8ZM43.91,55.2a5.46,5.46,0,0,0-5.45,5.46V332.09a5.46,5.46,0,0,0,5.45,5.46H237a5.47,5.47,0,0,0,5.46-5.46V60.66A5.47,5.47,0,0,0,237,55.2Z" style="fill:#ebebeb"></path><path d="M453.31,337.8H260.21a5.72,5.72,0,0,1-5.71-5.71V60.66A5.72,5.72,0,0,1,260.21,55h193.1A5.71,5.71,0,0,1,459,60.66V332.09A5.71,5.71,0,0,1,453.31,337.8ZM260.21,55.2a5.47,5.47,0,0,0-5.46,5.46V332.09a5.47,5.47,0,0,0,5.46,5.46h193.1a5.47,5.47,0,0,0,5.46-5.46V60.66a5.47,5.47,0,0,0-5.46-5.46Z" style="fill:#ebebeb"></path><polygon points="192.75 382.4 176.67 382.4 176.67 141 185.67 141 192.75 382.4" style="fill:#e6e6e6"></polygon><path d="M184.21,149.33H169.12a8.36,8.36,0,0,1-8.33-8.33h0a8.36,8.36,0,0,1,8.33-8.33h15.09a8.36,8.36,0,0,1,8.33,8.33h0A8.36,8.36,0,0,1,184.21,149.33Z" style="fill:#e6e6e6"></path><ellipse cx="167.57" cy="141.12" rx="8.02" ry="8.94" style="fill:#f5f5f5"></ellipse><polygon points="167.57 141.12 99.8 72.05 139.57 132.24 167.57 141.12" style="fill:#f5f5f5"></polygon><polygon points="167.57 141.12 141.63 234.34 173.87 169.8 167.57 141.12" style="fill:#f5f5f5"></polygon><polygon points="167.57 141.12 261.27 116.97 189.25 121.32 167.57 141.12" style="fill:#f5f5f5"></polygon><polygon points="333.37 382.4 319.83 382.4 319.83 158.9 327.41 158.9 333.37 382.4" style="fill:#e6e6e6"></polygon><path d="M326.18,165.91h-12.7a7,7,0,0,1-7-7h0a7,7,0,0,1,7-7h12.7a7,7,0,0,1,7,7h0A7,7,0,0,1,326.18,165.91Z" style="fill:#e6e6e6"></path><ellipse cx="312.17" cy="159" rx="6.75" ry="7.52" style="fill:#f5f5f5"></ellipse><polygon points="312.17 159 346.1 84.96 310.74 134.32 312.17 159" style="fill:#f5f5f5"></polygon><polygon points="312.17 159 231.09 166.63 291.52 172.58 312.17 159" style="fill:#f5f5f5"></polygon><polygon points="312.17 159 359.33 225.4 334.26 170.1 312.17 159" style="fill:#f5f5f5"></polygon><path d="M273.06,341s-48.68-24.18,2.38-53.11S337.06,310,337.06,310s8.17-47.32,50.39-23.83c32.57,18.12,26,40.6,21.33,49.93,5-6.85,17.54-17.91,41-3.64,31.83,19.41-4.38,49.93-4.38,49.93H253.15C228.64,343.64,273.06,341,273.06,341Z" style="fill:#e6e6e6"></path><path d="M267,328.33s60.33-31.55-3-69.33-76.36,28.89-76.36,28.89-10.13-61.78-62.45-31.11c-40.37,23.66-32.25,53-26.44,65.18C92.56,313,77,298.58,48,317.22,8.53,342.56,53.4,382.4,53.4,382.4H291.64C322,331.8,267,328.33,267,328.33Z" style="fill:#f0f0f0"></path><path d="M121.61,148.15c-2.72-5.48-8-9.38-13.42-9.38a9.83,9.83,0,0,0-8.07,4,9.48,9.48,0,0,0-5.93-2.28c-3.69,0-6.41,2.64-7,6.36a14,14,0,0,0-5.45-1.42c-3.69-.17-6.61,1.35-8.11,3.81a5,5,0,0,0-2.28-.71A2.78,2.78,0,0,0,68.21,152l.09.36h59.85C128.29,150.41,124.25,148.25,121.61,148.15Z" style="fill:#e6e6e6"></path><path d="M434,129.71c-2.72-5.48-8-9.38-13.41-9.38a9.82,9.82,0,0,0-8.08,4,9.53,9.53,0,0,0-5.93-2.27c-3.69,0-6.41,2.63-7.05,6.36a13.94,13.94,0,0,0-5.45-1.42c-3.69-.17-6.6,1.34-8.11,3.81a5,5,0,0,0-2.28-.71,2.77,2.77,0,0,0-3.09,3.41l.09.37h59.85C440.72,132,436.68,129.8,434,129.71Z" style="fill:#f5f5f5"></path><path d="M287.16,206.46a8.59,8.59,0,0,0-.86-.05c-2.66-3.23-6-5.3-9.12-5.3a6.08,6.08,0,0,0-5.25,2.9c-4.85-6.28-11.12-10.36-17-10.36-4.73,0-8.33,2.66-10.34,7-2.74-2.47-5.81-3.94-8.74-3.94-5.14,0-8.34,4.56-8.4,11,0,0,0,0,0,0a18.42,18.42,0,0,0-7.89-2.47c-5.16-.29-8.88,2.34-10.42,6.61a6.68,6.68,0,0,0-3.33-1.23c-2.82-.16-4.39,2.2-3.69,5.35H300A17,17,0,0,0,287.16,206.46Z" style="fill:#f5f5f5"></path><path d="M314.63,75.78l-.43,0a6.36,6.36,0,0,0-4.56-2.65A3,3,0,0,0,307,74.56c-2.43-3.14-5.56-5.18-8.5-5.18a5.55,5.55,0,0,0-5.16,3.49,6.8,6.8,0,0,0-4.37-2c-2.58,0-4.17,2.28-4.2,5.5h0a9.13,9.13,0,0,0-3.94-1.23,4.93,4.93,0,0,0-5.21,3.3,3.35,3.35,0,0,0-1.67-.61c-1.41-.08-2.19,1.1-1.84,2.67h48.95A8.5,8.5,0,0,0,314.63,75.78Z" style="fill:#e6e6e6"></path></g><g id="freepik--Shadow--inject-23"><ellipse id="freepik--path--inject-23" cx="250" cy="416.24" rx="193.89" ry="11.32" style="fill:#f5f5f5"></ellipse></g><g id="freepik--electric-car--inject-23"><path d="M269,336.37h-30.8c-13.21,0-23.91,17.33-23.91,38.71s10.7,38.71,23.91,38.71H269c13.21,0,23.92-17.33,23.92-38.71S282.19,336.37,269,336.37Z" style="fill:#407BFF"></path><path d="M269,336.37h-30.8c-13.21,0-23.91,17.33-23.91,38.71s10.7,38.71,23.91,38.71H269c13.21,0,23.92-17.33,23.92-38.71S282.19,336.37,269,336.37Z" style="opacity:0.2"></path><path d="M129.94,336.37H99.14c-13.21,0-23.91,17.33-23.91,38.71s10.7,38.71,23.91,38.71h30.8c13.21,0,23.92-17.33,23.92-38.71S143.15,336.37,129.94,336.37Z" style="fill:#407BFF"></path><path d="M129.94,336.37H99.14c-13.21,0-23.91,17.33-23.91,38.71s10.7,38.71,23.91,38.71h30.8c13.21,0,23.92-17.33,23.92-38.71S143.15,336.37,129.94,336.37Z" style="opacity:0.2"></path><path d="M423.91,307l7,6a11.7,11.7,0,0,1,3.76,11.58l-1.6,6.75Z" style="fill:#407BFF"></path><path d="M436.64,346.27h0a116.52,116.52,0,0,0-10.22-38.15L424,302.93H365.71l30.23,87h0a69.31,69.31,0,0,0,28.75-15l.7-.6A33.22,33.22,0,0,0,436.64,346.27Z" style="fill:#407BFF"></path><path d="M436.64,346.27h0a116.52,116.52,0,0,0-10.22-38.15L424,302.93H365.71l30.23,87h0a69.31,69.31,0,0,0,28.75-15l.7-.6A33.22,33.22,0,0,0,436.64,346.27Z" style="fill:#fff;opacity:0.5"></path><path d="M359.24,413.79c-13.21,0-23.92-17.33-23.92-38.71s10.71-38.71,23.92-38.71h30.69v77.42Z" style="fill:#407BFF"></path><ellipse cx="390.04" cy="375.08" rx="23.92" ry="38.71" style="fill:#407BFF"></ellipse><ellipse cx="390.04" cy="375.08" rx="16.78" ry="24.48" style="opacity:0.2"></ellipse><path d="M184.64,389.93l-57.52-92.31s45.51-46,144.91-46c86.06,0,137.6,28.42,152,51.32l-34.1,33.44c-33,0-32.82,35-37.35,49.75a5.41,5.41,0,0,1-5.21,3.81H184.64" style="fill:#407BFF"></path><path d="M184.64,389.93l-57.52-92.31s45.51-46,144.91-46c86.06,0,137.6,28.42,152,51.32l-34.1,33.44c-33,0-32.82,35-37.35,49.75a5.41,5.41,0,0,1-5.21,3.81H184.64" style="fill:#fff;opacity:0.5"></path><path d="M220.2,413.79c-13.21,0-23.92-17.33-23.92-38.71S207,336.37,220.2,336.37h30.69v77.42Z" style="fill:#407BFF"></path><ellipse cx="251" cy="375.08" rx="23.92" ry="38.71" style="fill:#407BFF"></ellipse><ellipse cx="251" cy="375.08" rx="16.78" ry="24.48" style="opacity:0.2"></ellipse><path d="M208.89,382.31c2.93-17.3,20.18-45.94,42-45.94L272,297.62H127.12c-9.24,0-52.44,15.61-68.17,31.34-11,11-12.15,22.09-13.45,50.29C45.24,385,50.53,390,56.89,390c53.46,0,118.16.21,141.71.28C203.8,390.25,208.11,386.94,208.89,382.31Z" style="fill:#407BFF"></path><path d="M208.89,382.31c2.93-17.3,20.18-45.94,42-45.94L272,297.62H127.12c-9.24,0-52.44,15.61-68.17,31.34-11,11-12.15,22.09-13.45,50.29C45.24,385,50.53,390,56.89,390c53.46,0,118.16.21,141.71.28C203.8,390.25,208.11,386.94,208.89,382.31Z" style="fill:#fff;opacity:0.5"></path><path d="M272,251.61c-98.79,0-143.87,45.3-144.89,46h99.94s43-37.15,71.47-45.06Q285.89,251.63,272,251.61Z" style="fill:#407BFF;opacity:0.30000000000000004"></path><path d="M148.42,337.16c13.71-5.2,55.12-19.79,66.41-16s-16.05,17.33-22.94,19.13-11.4-1.81-21.71,3.18S131.81,343.44,148.42,337.16Z" style="fill:#407BFF;opacity:0.7000000000000001"></path><path d="M318.26,390.45a.55.55,0,0,1-.3-.09.53.53,0,0,1-.14-.73c.21-.3,20.47-30.81,20.47-92a.53.53,0,0,1,.53-.53.52.52,0,0,1,.52.53c0,61.56-20.44,92.3-20.65,92.6A.51.51,0,0,1,318.26,390.45Z" style="fill:#407BFF;opacity:0.2"></path><path d="M98.74,343.22h-.11L71.1,336.88a.52.52,0,1,1,.24-1l27.43,6.3L144.14,337a.52.52,0,1,1,.12,1L98.8,343.22Z" style="fill:#407BFF;opacity:0.2"></path><path d="M389.93,336.9a.51.51,0,0,1-.38-.16.53.53,0,0,1,0-.75c9.61-9.43,14.74-31.45,14.74-43.72a.52.52,0,0,1,.52-.53.53.53,0,0,1,.53.53c0,12.46-5.23,34.85-15.05,44.48A.55.55,0,0,1,389.93,336.9Z" style="fill:#407BFF;opacity:0.2"></path><path d="M312.46,308.14h13.71a1.94,1.94,0,0,0,1.93-1.93h0a1.94,1.94,0,0,0-1.93-1.93H312.46a1.94,1.94,0,0,0-1.93,1.93h0A1.94,1.94,0,0,0,312.46,308.14Z" style="fill:#407BFF"></path><path d="M372.61,308.14h13.7a1.94,1.94,0,0,0,1.94-1.93h0a1.94,1.94,0,0,0-1.94-1.93h-13.7a1.94,1.94,0,0,0-1.93,1.93h0A1.94,1.94,0,0,0,372.61,308.14Z" style="fill:#407BFF"></path><path d="M70.24,337.67c-2.82-1.72-7.45-4.44-12.69-7.23a34.69,34.69,0,0,0-6.78,10.4,13.59,13.59,0,0,1,5.64,2.8C63.09,348.78,81,344.23,70.24,337.67Z" style="fill:#407BFF;opacity:0.7000000000000001"></path><path d="M244.76,297.62H384.44a41.46,41.46,0,0,0,20.38-5.35h0s-22.6-20.54-68.11-29.39c-18.7-3.64-36.43-5.05-41.88-4.7C281.83,265,261.92,279.44,244.76,297.62Z" style="fill:#407BFF;opacity:0.30000000000000004"></path><path d="M161,383.52H61.66a2.77,2.77,0,0,1-2.08-4.61l2.57-2.9a2.79,2.79,0,0,1,2.08-.93h94.18a2.77,2.77,0,0,1,2.07.93l2.57,2.9A2.77,2.77,0,0,1,161,383.52Z" style="fill:#407BFF"></path><path d="M421.5,337.32l-6.25,1.2V321.57l6.25,1.2c.85.17,1.49,1.31,1.49,2.67v9.21C423,336,422.35,337.15,421.5,337.32Z" style="fill:#407BFF"></path></g><g id="freepik--Charger--inject-23"><path d="M316.09,421.45c-5,0-7.71-1.24-7.71-3.48,0-1.91,2.13-3.32,6.52-4.3a87,87,0,0,1,17.88-1.46H413c4.88,0,8.54-1.42,11.21-4.35,7.23-7.91,5.61-25.73,4.43-38.73-.4-4.42-.78-8.6-.78-11.85a84.93,84.93,0,0,1,1.2-12.92c.75-5.05,1.34-9-.27-10.91-1.06-1.23-3.27-1.82-6.77-1.82v-3.17c4.54,0,7.45.93,9.16,2.92,2.57,3,1.88,7.6,1,13.44A81.79,81.79,0,0,0,431,357.28c0,3.11.37,7.21.77,11.56,1.3,14.35,2.92,32.21-5.24,41.16-3.26,3.56-7.82,5.37-13.55,5.37H332.78c-12.95,0-18.71,1.52-20.62,2.47a13.93,13.93,0,0,0,3.93.45Z" style="fill:#407BFF"></path><path d="M422,324.55v11a5.5,5.5,0,0,0,0-11Z" style="fill:#407BFF"></path><rect x="332.78" y="165.89" width="42.02" height="252.61" style="fill:#263238"></rect><rect x="336.38" y="162.78" width="49.96" height="3.11" style="fill:#263238"></rect><rect x="374.81" y="162.78" width="11.53" height="3.11" style="opacity:0.4"></rect><polygon points="360.72 188.27 353.65 188.27 359.83 178.49 352.06 178.49 346.87 192.32 353.32 192.32 349.39 204.81 360.72 188.27" style="fill:#fff"></polygon><circle cx="353.8" cy="325.51" r="8.83" transform="translate(-126.55 345.51) rotate(-45)" style="fill:#407BFF;opacity:0.5"></circle><path d="M316.09,421.45a1.58,1.58,0,1,1,0-3.16c5.09,0,8.6-1.26,10.74-3.85,4.92-5.95,2.47-18.75-.12-32.31-1.72-9-3.5-18.31-3.5-27,0-20.14,10.86-31.24,30.58-31.24a1.59,1.59,0,1,1,0,3.17c-12.51,0-27.42,4.87-27.42,28.07,0,8.35,1.75,17.51,3.44,26.37,2.74,14.31,5.32,27.82-.54,34.91C326.49,419.81,322.18,421.45,316.09,421.45Z" style="fill:#407BFF"></path><rect x="338.03" y="246.01" width="31.54" height="63.74" style="fill:#407BFF;opacity:0.5"></rect><polygon points="338.02 246.01 338.02 309.75 349.32 254.88 338.02 246.01" style="fill:#407BFF;opacity:0.5"></polygon><polygon points="363.58 267.5 364.22 264.39 355.61 264.39 354.97 267.5 351.64 267.5 345.54 297.12 360.89 297.12 366.99 267.5 363.58 267.5" style="fill:#407BFF"></polygon><path d="M362.78,278l-3.14,15.26a2.31,2.31,0,0,1-2.27,1.85h-7.66a1.39,1.39,0,0,1-1.37-1.68l3.14-15.26a2.31,2.31,0,0,1,2.27-1.85h7.66A1.39,1.39,0,0,1,362.78,278Z" style="fill:#fff;opacity:0.4"></path><polygon points="338.02 246.01 369.56 246 369.56 254.88 349.32 254.88 338.02 246.01" style="fill:#263238;opacity:0.4"></polygon><rect x="374.81" y="165.89" width="15.12" height="252.61" transform="translate(764.73 584.39) rotate(180)" style="fill:#263238"></rect><rect x="374.81" y="165.89" width="15.12" height="252.61" transform="translate(764.73 584.39) rotate(180)" style="opacity:0.4"></rect></g></svg>
